HIERARCHY
ROOT SpineBase
{
  OFFSET 0.000000 0.000000 0.000000
  CHANNELS 6 Xposition Yposition Zposition Zrotation Xrotation Yrotation
  JOINT SpineMid
  {
    OFFSET 0.000000 30.943736 0.000000
    CHANNELS 3 Zrotation Xrotation Yrotation
    JOINT SpineShoulder
    {
      OFFSET -0.051527 22.876139 -0.648647
      CHANNELS 3 Zrotation Xrotation Yrotation
      JOINT Neck
      {
        OFFSET -0.073189 7.507943 -0.529694
        CHANNELS 3 Zrotation Xrotation Yrotation
        JOINT Head
        {
          OFFSET -2.087326 9.364506 4.215391
          CHANNELS 3 Zrotation Xrotation Yrotation
          End Site
          {
            OFFSET 0 0 0
          }
        }
      }
      JOINT ShoulderLeft
      {
        OFFSET -10.530680 -7.363007 -10.324186
        CHANNELS 3 Zrotation Xrotation Yrotation
        JOINT ElbowLeft
        {
          OFFSET 3.892907 -26.382200 -5.596493
          CHANNELS 3 Zrotation Xrotation Yrotation
          JOINT WristLeft
          {
            OFFSET -11.449134 16.257053 3.166467
            CHANNELS 3 Zrotation Xrotation Yrotation
            JOINT HandLeft
            {
              OFFSET -7.544072 2.938696 -3.958886
              CHANNELS 3 Zrotation Xrotation Yrotation
              JOINT HandTipLeft
              {
                OFFSET -8.129905 3.120259 -1.672770
                CHANNELS 3 Zrotation Xrotation Yrotation
                End Site
                {
                  OFFSET 0 0 0
                }
              }
              JOINT ThumbLeft
              {
                OFFSET 5.330284 5.231128 5.559738
                CHANNELS 3 Zrotation Xrotation Yrotation
                End Site
                {
                  OFFSET 0 0 0
                }
              }
            }
          }
        }
      }
      JOINT ShoulderRight
      {
        OFFSET 0.379418 -4.632378 -11.178102
        CHANNELS 3 Zrotation Xrotation Yrotation
        JOINT ElbowRight
        {
          OFFSET -6.325615 -22.831418 -1.841330
          CHANNELS 3 Zrotation Xrotation Yrotation
          JOINT WristRight
          {
            OFFSET -4.150237 -19.217893 2.312534
            CHANNELS 3 Zrotation Xrotation Yrotation
            JOINT HandRight
            {
              OFFSET -0.874782 -9.311208 2.013790
              CHANNELS 3 Zrotation Xrotation Yrotation
              JOINT HandTipRight
              {
                OFFSET -4.893684 -6.736534 2.938647
                CHANNELS 3 Zrotation Xrotation Yrotation
                End Site
                {
                  OFFSET 0 0 0
                }
              }
              JOINT ThumbRight
              {
                OFFSET -3.191601 3.407188 3.305287
                CHANNELS 3 Zrotation Xrotation Yrotation
                End Site
                {
                  OFFSET 0 0 0
                }
              }
            }
          }
        }
      }
    }
  }
  JOINT HipLeft
  {
    OFFSET -5.009705 0.078463 -0.095670
    CHANNELS 3 Zrotation Xrotation Yrotation
    JOINT KneeLeft
    {
      OFFSET 17.095806 -42.098735 3.581448
      CHANNELS 3 Zrotation Xrotation Yrotation
      JOINT AnkleLeft
      {
        OFFSET -0.497950 -31.444446 4.799690
        CHANNELS 3 Zrotation Xrotation Yrotation
        JOINT FootLeft
        {
          OFFSET -0.040738 -7.140403 -7.721445
          CHANNELS 3 Zrotation Xrotation Yrotation
          End Site
          {
            OFFSET 0 0 0
          }
        }
      }
    }
  }
  JOINT HipRight
  {
    OFFSET 3.703602 1.465263 -6.974573
    CHANNELS 3 Zrotation Xrotation Yrotation
    JOINT KneeRight
    {
      OFFSET 0.327545 -45.230829 4.893517
      CHANNELS 3 Zrotation Xrotation Yrotation
      JOINT AnkleRight
      {
        OFFSET 2.564329 -35.069256 0.458511
        CHANNELS 3 Zrotation Xrotation Yrotation
        JOINT FootRight
        {
          OFFSET -1.601561 -2.554513 -10.056035
          CHANNELS 3 Zrotation Xrotation Yrotation
          End Site
          {
            OFFSET 0 0 0
          }
        }
      }
    }
  }
}
MOTION
Frames: 16
Frame Time: 0.033333
58.184209 82.151671 313.286531 -0.000000 0.000000 38.290066 -0.000000 0.000000 -38.290066 -0.000000 0.000000 0.000000 -0.000000 0.000000 0.000000 0.000000 0.000000 0.000000 -0.000000 0.000000 0.000000 -0.000000 0.000000 0.000000 -0.000000 0.000000 0.000000 -0.000000 0.000000 0.000000 0.000000 0.000000 0.000000 0.000000 0.000000 0.000000 -0.000000 0.000000 0.000000 -0.000000 0.000000 0.000000 -0.000000 0.000000 0.000000 -0.000000 0.000000 0.000000 0.000000 0.000000 0.000000 0.000000 0.000000 0.000000 -0.000000 0.000000 -38.290066 -0.000000 0.000000 0.000000 -0.000000 0.000000 0.000000 0.000000 0.000000 0.000000 -0.000000 0.000000 -38.290066 -0.000000 0.000000 0.000000 -0.000000 0.000000 0.000000 0.000000 0.000000 0.000000
58.190774 82.289484 313.350723 -0.079819 0.008433 37.338140 0.058346 -0.055116 -37.338106 -0.000000 0.000000 0.000000 -0.000000 0.000000 0.000000 0.000000 0.000000 0.000000 -0.000000 0.000000 0.000000 -0.000000 0.000000 0.000000 -0.000000 0.000000 0.000000 -0.000000 0.000000 0.000000 0.000000 0.000000 0.000000 0.000000 0.000000 0.000000 0.126750 3.453574 -0.969089 -0.009712 -4.665353 1.233168 0.704902 -4.631172 0.463517 -0.693757 5.847705 -0.671504 0.000000 0.000000 0.000000 0.000000 0.000000 0.000000 0.058346 -0.055116 -37.338106 -0.020470 0.940890 -0.017879 -0.536670 -1.412204 0.614933 0.000000 0.000000 0.000000 0.058346 -0.055116 -37.338106 -0.000000 0.000000 0.000000 -0.000000 0.000000 0.000000 0.000000 0.000000 0.000000
58.197857 82.390545 313.423212 -0.147563 0.006744 36.538222 0.114546 -0.093271 -36.538120 -0.000000 0.000000 0.000000 -0.000000 0.000000 0.000000 0.000000 0.000000 0.000000 -0.000000 0.000000 0.000000 -0.000000 0.000000 0.000000 -0.000000 0.000000 0.000000 -0.000000 0.000000 0.000000 0.000000 0.000000 0.000000 0.000000 0.000000 0.000000 0.296745 6.087698 -1.721664 -0.019328 -8.257836 2.182072 1.290748 -8.147855 0.845448 -1.169672 10.330161 -1.141583 0.000000 0.000000 0.000000 0.000000 0.000000 0.000000 0.114546 -0.093271 -36.538120 -0.166797 1.849039 -0.052179 -0.589535 -2.812906 0.859705 0.000000 0.000000 0.000000 -0.437665 0.563172 -36.624723 1.632116 -0.771871 0.065376 -0.574048 -0.628874 -0.087954 0.000000 0.000000 0.000000
58.205460 82.454855 313.503999 -0.203030 -0.005130 35.893471 0.167484 -0.114877 -35.893313 -0.000000 0.000000 0.000000 -0.000000 0.000000 0.000000 0.000000 0.000000 0.000000 -0.000000 0.000000 0.000000 -0.000000 0.000000 0.000000 -0.000000 0.000000 0.000000 -0.000000 0.000000 0.000000 0.000000 0.000000 0.000000 0.000000 0.000000 0.000000 0.479899 7.927529 -2.261539 -0.084356 -10.801753 2.843562 1.742890 -10.553272 1.119354 -1.462932 13.442040 -1.447789 0.000000 0.000000 0.000000 0.000000 0.000000 0.000000 0.167484 -0.114877 -35.893313 -0.439993 2.723282 -0.100194 -0.147352 -4.199359 0.745643 0.000000 0.000000 0.000000 -0.583019 0.820580 -36.011550 2.322276 -1.198945 0.091881 -0.908924 -1.014713 0.268069 0.000000 0.000000 0.000000
58.213580 82.482412 313.593084 -0.246059 -0.027209 35.406156 0.216318 -0.120382 -35.405987 -0.000000 0.000000 0.000000 0.485065 0.741689 -0.055952 0.000000 0.000000 0.000000 -0.000000 0.000000 0.000000 -0.000000 0.000000 0.000000 -0.000000 0.000000 0.000000 -0.000000 0.000000 0.000000 0.000000 0.000000 0.000000 0.000000 0.000000 0.000000 0.656037 9.000931 -2.590683 -0.244128 -12.324189 3.214706 2.055191 -11.896812 1.272336 -1.597924 15.227974 -1.615624 0.000000 0.000000 0.000000 0.000000 0.000000 0.000000 0.216318 -0.120382 -35.405987 -0.840942 3.562592 -0.159384 0.806138 -5.575336 0.279148 0.000000 0.000000 0.000000 -0.676770 1.066751 -35.548596 2.929903 -1.654205 0.114415 -1.272580 -1.452324 0.908481 0.000000 0.000000 0.000000
58.222219 82.473217 313.690466 -0.276538 -0.059478 35.077791 0.260492 -0.110248 -35.077684 -0.000000 0.000000 0.000000 0.436539 0.780659 -0.025372 0.000000 0.000000 0.000000 0.889016 0.676226 -0.093830 -0.887969 -0.677600 0.083332 -0.000000 0.000000 0.000000 -0.000000 0.000000 0.000000 0.000000 0.000000 0.000000 0.000000 0.000000 0.000000 0.813860 9.327580 -2.709032 -0.521660 -12.843115 3.296645 2.225769 -12.221231 1.300039 -2.023838 14.910225 -1.116142 0.000000 0.000000 0.000000 0.000000 0.000000 0.000000 -0.536449 -0.370177 -35.396580 -0.896427 5.031754 0.102492 2.292002 -6.950809 -0.538019 0.000000 0.000000 0.000000 -0.717031 1.304194 -35.237791 3.455797 -2.138258 0.132985 -1.661141 -1.945564 1.847514 0.000000 0.000000 0.000000
58.240584 82.409737 313.795465 -0.278571 -0.117865 34.987227 0.295811 -0.063167 -34.987350 -0.000000 0.000000 0.000000 -0.000000 0.000000 0.000000 0.000000 0.000000 0.000000 1.407478 1.139814 -0.143828 -1.404892 -1.143000 0.115812 -0.000000 0.000000 0.000000 -0.000000 0.000000 0.000000 0.000000 0.000000 0.000000 0.000000 0.000000 0.000000 1.020140 8.627971 -2.544580 -1.150883 -11.956173 2.955116 1.942231 -11.229846 1.077138 -1.574622 13.640469 -0.951561 0.000000 0.000000 0.000000 0.000000 0.000000 0.000000 -0.641367 -0.146046 -35.296789 -1.649507 6.192509 -0.002932 3.712898 -8.081971 -0.700643 0.000000 0.000000 0.000000 -0.483457 1.266512 -35.126175 3.172931 -2.780257 0.073900 -1.769402 -2.841974 4.010144 0.000000 0.000000 0.000000
58.246081 82.326985 313.916492 -0.283804 -0.184886 34.945134 0.338535 -0.011011 -34.945560 -0.000000 0.000000 0.000000 -0.000000 0.000000 0.000000 0.000000 0.000000 0.000000 1.783245 1.430517 -0.188549 -1.779087 -1.435685 0.143992 -0.000000 0.000000 0.000000 -0.000000 0.000000 0.000000 0.000000 0.000000 0.000000 0.000000 0.000000 0.000000 1.222670 6.695532 -2.023521 -2.043271 -9.365273 2.170301 1.997827 -8.736876 0.841307 -1.656640 9.979613 -0.404688 0.000000 0.000000 0.000000 0.000000 0.000000 0.000000 -0.473200 -0.284662 -35.271253 -4.673624 7.668179 -0.200939 11.331538 -12.711446 -4.388269 0.000000 0.000000 0.000000 -0.384564 1.493113 -35.087745 3.117360 -2.639422 0.099924 -1.772205 -3.035061 4.386623 0.000000 0.000000 0.000000
58.264304 82.203077 314.031770 -0.271449 -0.235786 35.069567 0.357645 0.037011 -35.070241 -0.000000 0.000000 0.000000 -0.000000 0.000000 0.000000 0.000000 0.000000 0.000000 1.994443 1.552655 -0.219837 -1.989209 -1.559357 0.165736 -0.000000 0.000000 0.000000 -0.000000 0.000000 0.000000 0.000000 0.000000 0.000000 0.000000 0.000000 0.000000 1.252647 4.496772 -1.396455 -2.524396 -6.553648 1.429048 2.103451 -5.102687 0.544649 -2.270833 4.482539 0.581611 0.000000 0.000000 0.000000 0.000000 0.000000 0.000000 -0.429778 0.111981 -35.286989 -5.303457 7.575584 -0.397321 14.388704 -12.263424 -6.278140 0.000000 0.000000 0.000000 -0.419699 1.929390 -35.235588 3.302985 -2.526818 0.160671 -2.075108 0.665080 2.638782 0.000000 0.000000 0.000000
58.279929 82.100339 314.138078 -0.263189 -0.262078 35.307997 0.366250 0.061753 -35.308797 -0.000000 0.000000 0.000000 -0.000000 0.000000 0.000000 0.000000 0.000000 0.000000 2.011860 1.508215 -0.229508 -2.006505 -1.515333 0.176487 -0.000000 0.000000 0.000000 -0.000000 0.000000 0.000000 0.000000 0.000000 0.000000 0.000000 0.000000 0.000000 1.207050 3.044711 -0.973921 -2.607655 -4.773849 0.998107 2.141271 -2.398043 0.322095 -3.082595 0.635360 1.023724 0.000000 0.000000 0.000000 0.000000 0.000000 0.000000 -0.315427 0.649698 -35.346079 -4.030308 6.190690 -0.550794 13.088197 -9.504494 -6.583508 0.000000 0.000000 0.000000 -0.484045 2.390793 -35.501400 4.578620 -3.563343 0.219770 -2.612843 -3.764221 5.359180 0.000000 0.000000 0.000000
58.271375 81.989785 314.243279 -0.291683 -0.267305 35.463948 0.392658 0.048480 -35.464795 -0.000000 0.000000 0.000000 -0.000000 0.000000 0.000000 0.000000 0.000000 0.000000 1.871929 1.316468 -0.223292 -0.857894 -1.116030 0.148781 -1.009661 -0.204573 0.051122 -0.000000 0.000000 0.000000 0.000000 0.000000 0.000000 0.000000 0.000000 0.000000 1.302999 2.324828 -0.776894 -2.715687 -3.760960 0.774364 2.265225 -1.209570 0.272472 -3.383157 -0.757449 0.943020 0.000000 0.000000 0.000000 0.000000 0.000000 0.000000 -0.468529 1.401657 -35.334949 -0.380441 3.988971 -0.416769 7.462915 -5.605506 -5.099117 0.000000 0.000000 0.000000 -0.501996 2.874587 -35.685731 5.335791 -4.059807 0.301316 -2.533948 -5.481213 4.791573 0.000000 0.000000 0.000000
58.227597 81.907878 314.339473 -0.393181 -0.306257 35.468518 0.497926 0.021276 -35.469661 -0.000000 0.000000 0.000000 0.010754 0.933911 0.202495 0.000000 0.000000 0.000000 1.587351 0.954251 -0.208363 -0.149411 -0.664248 0.127934 -1.435156 -0.292408 0.070612 -0.000000 0.000000 0.000000 0.000000 0.000000 0.000000 0.000000 0.000000 0.000000 1.465105 2.337247 -0.797195 -2.627179 -3.554720 0.786218 2.003523 -1.268913 0.279625 -3.203734 -0.232015 0.552963 0.000000 0.000000 0.000000 0.000000 0.000000 0.000000 -0.741027 2.268587 -35.187768 4.876197 1.209554 0.118343 -1.922653 0.887658 -1.077551 0.000000 0.000000 0.000000 -0.408438 3.556191 -35.726779 5.925562 -4.359144 0.416558 -2.255953 -5.586240 2.262015 0.000000 0.000000 0.000000
58.150880 81.891428 314.422067 -0.414297 -0.201900 35.504088 0.454523 -0.076249 -35.504515 -0.000000 0.000000 0.000000 0.649523 0.999888 -0.074784 0.000000 0.000000 0.000000 1.165426 0.443638 -0.185850 0.642743 -0.075677 0.091687 -1.807335 -0.368794 0.087537 -0.000000 0.000000 0.000000 0.000000 0.000000 0.000000 0.000000 0.000000 0.000000 1.962913 3.024315 -1.050970 -3.235347 -3.873364 0.878759 2.584480 -3.719871 0.701213 -3.480461 2.233067 0.175946 0.000000 0.000000 0.000000 0.000000 0.000000 0.000000 -1.317687 3.048654 -35.115493 11.191636 -1.669065 1.139746 -14.491161 8.169755 5.974289 0.000000 0.000000 0.000000 -0.530638 4.026188 -35.795962 6.499761 -4.253645 0.534669 -2.148572 -3.849767 -1.152535 0.000000 0.000000 0.000000
58.018990 81.784698 314.500703 -0.392798 0.019756 35.007950 0.310398 -0.241525 -35.007228 -0.000000 0.000000 0.000000 1.243199 0.848594 -0.377523 0.000000 0.000000 0.000000 -0.000000 0.000000 0.000000 2.073469 0.419172 -0.114739 -2.072682 -0.423049 0.099501 -0.000000 0.000000 0.000000 0.000000 0.000000 0.000000 0.000000 0.000000 0.000000 2.704657 4.440048 -1.559028 -4.101461 -5.637450 1.271073 2.565097 -6.735399 0.932583 -3.670610 6.682188 -0.847552 0.000000 0.000000 0.000000 0.000000 0.000000 0.000000 -1.632337 3.352593 -34.515115 16.870244 -4.454813 2.415286 -26.580477 12.321073 13.490615 0.000000 0.000000 0.000000 -0.721133 4.387363 -35.326617 8.020306 -5.264220 0.688219 -3.362597 -4.536142 0.086205 0.000000 0.000000 0.000000
57.855694 81.577970 314.680643 -0.260155 0.209391 34.211242 0.097413 -0.319430 -34.210495 -0.000000 0.000000 0.000000 2.784047 1.317245 -0.981442 0.000000 0.000000 0.000000 -0.000000 0.000000 0.000000 2.184140 0.439540 -0.122558 -2.183260 -0.443891 0.105721 -0.000000 0.000000 0.000000 0.000000 0.000000 0.000000 0.000000 0.000000 0.000000 3.844160 6.609261 -2.376058 -5.390557 -8.721965 1.890774 2.491022 -11.063670 1.169939 -3.544861 13.288793 -2.080092 0.000000 0.000000 0.000000 0.000000 0.000000 0.000000 -2.733483 4.193438 -33.649620 20.205798 -4.017044 2.843374 -33.228952 14.104958 18.103118 0.000000 0.000000 0.000000 -1.785153 5.891505 -34.637733 11.011067 -5.778626 1.147029 -4.833585 -2.497119 -1.420716 0.000000 0.000000 0.000000
57.698710 81.359646 314.980381 0.044265 0.396334 33.309926 -0.254650 -0.306911 -33.310761 -0.000000 0.000000 0.000000 3.375663 2.199189 -1.078108 0.000000 0.000000 0.000000 -0.000000 0.000000 0.000000 2.082182 0.415681 -0.118804 -2.081372 -0.419722 0.103626 -0.000000 0.000000 0.000000 0.000000 0.000000 0.000000 0.000000 0.000000 0.000000 5.401898 7.969978 -3.046272 -7.463135 -11.137719 2.206391 2.592703 -13.813888 1.198102 -2.661393 18.432208 -3.196308 0.000000 0.000000 0.000000 0.000000 0.000000 0.000000 -3.497567 4.522873 -32.719065 22.644283 -4.414129 3.344938 -39.851029 17.177158 23.228784 0.000000 0.000000 0.000000 -2.333972 5.572223 -33.727082 9.437875 -3.183638 1.035100 -3.484374 -1.544349 -3.308854 0.000000 0.000000 0.000000
